<svg width="26" height="26" viewBox="0 0 24 24" xmlns="http://www.w3.org/2000/svg"><path fill-rule="evenodd" clip-rule="evenodd" d="M18 2.583c0-.322.261-.583.583-.583h.834c.322 0 .583.26.583.583V4h1.417c.322 0 .583.26.583.583v.833a.583.583 0 0 1-.583.584H20v1.416a.583.583 0 0 1-.583.584h-.834A.583.583 0 0 1 18 7.416V6h-1.417A.583.583 0 0 1 16 5.416v-.833c0-.322.261-.583.583-.583H18V2.583zM14.4 5.1c0-.246.02-.487.057-.722A8.11 8.11 0 0 0 12 4c-4.418 0-8 3.525-8 7.873 0 3.099 1.818 5.778 4.46 7.066 1.727.883 2.767 1.805 3.12 2.767a.447.447 0 0 0 .84 0c.353-.962 1.393-1.884 3.12-2.767 2.643-1.287 4.46-3.966 4.46-7.065 0-.813-.125-1.597-.358-2.335a4.5 4.5 0 0 1-5.242-4.44zm-.114 6.774c0 1.242-1.024 2.25-2.286 2.25s-2.286-1.007-2.286-2.25c0-1.242 1.024-2.25 2.286-2.25s2.286 1.006 2.286 2.25z" fill="currentColor"></path></svg>