<?xml version="1.0" standalone="no"?>
<!DOCTYPE svg PUBLIC "-//W3C//DTD SVG 20010904//EN"
 "http://www.w3.org/TR/2001/REC-SVG-20010904/DTD/svg10.dtd">
<svg version="1.0" xmlns="http://www.w3.org/2000/svg"
 width="25.000000pt" height="25.000000pt" viewBox="0 0 100.000000 100.000000"

 preserveAspectRatio="xMidYMid meet">

<g transform="translate(0.000000,100.000000) scale(0.100000,-0.100000)"
fill="#000000" stroke="none">
<path d="M91 806 c-47 -26 -50 -45 -51 -304 0 -264 4 -287 55 -310 37 -17 773
-17 810 0 51 23 55 46 55 307 0 259 -4 282 -51 307 -39 20 -782 20 -818 0z
m809 -46 c11 -11 20 -33 20 -50 l0 -30 -420 0 -420 0 0 30 c0 17 9 39 20 50
19 19 33 20 400 20 367 0 381 -1 400 -20z m20 -340 c0 -147 -2 -162 -20 -180
-19 -19 -33 -20 -400 -20 -367 0 -381 1 -400 20 -18 18 -20 33 -20 180 l0 160
420 0 420 0 0 -160z"/>
<path d="M180 500 c0 -19 7 -20 160 -20 153 0 160 1 160 20 0 19 -7 20 -160
20 -153 0 -160 -1 -160 -20z"/>
</g>
</svg>