<svg width="31" height="24" viewBox="0 0 31 24" fill="none" xmlns="http://www.w3.org/2000/svg">
<path d="M1.94406 10.8161C1.70022 10.1626 2.18345 9.46651 2.88096 9.46651H28.1467C28.8245 9.46651 29.3059 10.1266 29.0988 10.7721L25.6046 21.6609C25.4718 22.0747 25.087 22.3554 24.6525 22.3554H6.94398C6.52654 22.3554 6.15301 22.0961 6.00708 21.705L1.94406 10.8161Z" stroke="#2D2D2D" stroke-width="2"/>
<rect x="15.1111" y="12.0221" width="2" height="7.77778" rx="1" fill="#2D2D2D"/>
<rect x="17" y="1.64461" width="2" height="10" rx="1" transform="rotate(-30 17 1.64461)" fill="#2D2D2D"/>
<rect x="13" y="0.644608" width="2" height="10" rx="1" transform="rotate(30 13 0.644608)" fill="#2D2D2D"/>
<rect x="20.2222" y="12.0221" width="2" height="7.77778" rx="1" fill="#2D2D2D"/>
<rect x="10" y="12.0221" width="2" height="7.77778" rx="1" fill="#2D2D2D"/>
</svg>
