<svg width="24" height="24" viewBox="0 0 24 24" fill="none" xmlns="http://www.w3.org/2000/svg">
<g clip-path="url(#clip0_42_63)">
<rect width="24" height="24" fill="white"/>
<path d="M23.8375 12.4947C24.0628 12.1861 24.053 11.7648 23.813 11.466C20.1831 7.00339 16.2642 4.74023 12.1592 4.74023C5.19827 4.74023 0.363346 11.226 0.162503 11.5003C-0.0628328 11.8089 -0.0530355 12.2302 0.186996 12.529C3.81197 16.9966 7.73085 19.2597 11.8359 19.2597C18.7968 19.2597 23.6317 12.774 23.8375 12.4947ZM11.8359 17.5795C8.41666 17.5795 5.08561 15.6984 1.9211 11.9951C3.16045 10.5304 7.09893 6.42046 12.1592 6.42046C15.5784 6.42046 18.9095 8.30152 22.074 12.0049C20.8346 13.4696 16.8962 17.5795 11.8359 17.5795Z" fill="black"/>
<path d="M11.9975 7.73328C9.64619 7.73328 7.73083 9.64863 7.73083 12C7.73083 14.3513 9.64619 16.2667 11.9975 16.2667C14.3489 16.2667 16.2642 14.3513 16.2642 12C16.2642 9.64863 14.3489 7.73328 11.9975 7.73328ZM11.9975 14.5864C10.572 14.5864 9.41106 13.4255 9.41106 12C9.41106 10.5745 10.572 9.4135 11.9975 9.4135C13.423 9.4135 14.584 10.5745 14.584 12C14.584 13.4255 13.423 14.5864 11.9975 14.5864Z" fill="black"/>
</g>
<defs>
<clipPath id="clip0_42_63">
<rect width="24" height="24" fill="white"/>
</clipPath>
</defs>
</svg>
