<?xml version="1.0" standalone="no"?>
<!DOCTYPE svg PUBLIC "-//W3C//DTD SVG 20010904//EN" "http://www.w3.org/TR/2001/REC-SVG-20010904/DTD/svg10.dtd">
<svg version="1.0" xmlns="http://www.w3.org/2000/svg" width="30px" height="30px"
  viewBox="0 0 60.000000 60.000000" preserveAspectRatio="xMidYMid meet">

  <g transform="translate(0.000000,60.000000) scale(0.100000,-0.100000)" fill="#000000" stroke="none">
    <path d="M114 575 c-32 -16 -63 -41 -80 -67 -28 -40 -29 -45 -32 -190 -4 -144
-3 -151 22 -202 17 -35 41 -63 68 -82 40 -28 45 -29 190 -32 144 -4 151 -3
202 22 35 17 63 41 82 68 28 40 29 45 32 190 4 144 3 151 -22 202 -17 35 -41
63 -68 82 -40 28 -44 29 -192 32 -146 3 -153 2 -202 -23z m236 -45 c27 -27 26
-84 -2 -140 -27 -53 -48 -60 -78 -28 l-22 23 11 -22 c8 -17 9 -29 1 -43 -21
-40 -139 -18 -174 31 -22 33 -20 56 9 84 34 35 68 32 115 -11 39 -36 40 -36
30 -10 -35 94 46 180 110 116z m154 -91 c57 -45 19 -121 -68 -134 -61 -10 -96
0 -96 26 0 50 70 129 114 129 13 0 35 -9 50 -21z m-245 -163 c6 -7 8 -22 5
-32 -6 -16 -5 -17 7 -6 17 16 39 15 58 -2 14 -13 16 -11 16 17 0 31 2 32 47
35 91 6 154 -45 132 -106 -5 -15 -22 -33 -36 -40 -35 -16 -85 3 -116 44 l-22
29 10 -28 c5 -16 10 -46 10 -67 0 -72 -77 -102 -122 -48 -22 25 -23 67 -3 116
l16 37 -31 -36 c-39 -48 -76 -61 -118 -43 -57 24 -51 102 10 129 43 18 122 19
137 1z" />
  </g>
</svg>