<?xml version="1.0" standalone="no"?>
<!DOCTYPE svg PUBLIC "-//W3C//DTD SVG 20010904//EN"
 "http://www.w3.org/TR/2001/REC-SVG-20010904/DTD/svg10.dtd">
<svg version="1.0" xmlns="http://www.w3.org/2000/svg"
 width="120.000000pt" height="44.000000pt" viewBox="0 0 120.000000 44.000000"
 preserveAspectRatio="xMidYMid meet">

<g transform="translate(0.000000,44.000000) scale(0.100000,-0.100000)"
fill="#000000" stroke="none">
<path d="M904 428 c-21 -10 -43 -50 -61 -112 -6 -20 -19 -33 -41 -40 -45 -16
-58 -31 -42 -51 7 -9 20 -13 28 -10 12 4 13 -1 9 -25 -29 -143 -31 -161 -16
-171 8 -5 23 -8 34 -7 16 2 27 25 56 112 36 109 36 110 75 121 48 13 56 48 12
53 -33 4 -33 3 -8 52 25 49 25 67 1 80 -23 12 -20 12 -47 -2z"/>
<path d="M175 405 c-22 -8 -46 -22 -53 -32 -42 -55 -122 -259 -122 -310 0 -48
82 -56 94 -9 3 14 11 38 17 53 l11 28 21 -44 c17 -35 29 -47 56 -54 68 -17 78
9 30 79 -17 25 -29 47 -27 48 1 1 17 12 35 24 65 45 96 169 53 212 -23 23 -59
25 -115 5z m45 -88 c0 -23 -45 -76 -55 -65 -6 5 18 68 31 81 14 14 24 7 24
-16z"/>
<path d="M636 280 c-35 -11 -65 -38 -77 -69 -11 -29 10 -66 46 -83 33 -15 22
-28 -26 -28 -50 0 -93 -34 -78 -61 14 -27 74 -40 124 -28 95 24 123 96 64 164
-27 30 -28 35 -12 35 21 0 63 27 63 40 0 17 -32 40 -53 39 -12 0 -35 -5 -51
-9z"/>
<path d="M383 265 c-37 -16 -89 -91 -99 -141 -8 -45 14 -86 53 -97 40 -12 118
-1 138 20 14 14 14 17 -2 35 -14 16 -26 19 -63 14 l-45 -6 55 19 c61 22 75 36
85 87 13 73 -42 104 -122 69z m37 -84 c0 -13 -29 -35 -37 -28 -7 8 15 37 28
37 5 0 9 -4 9 -9z"/>
<path d="M1065 268 c-11 -7 -27 -13 -35 -15 -20 -3 -46 -40 -59 -84 -31 -103
2 -154 97 -147 62 5 94 30 118 94 19 49 14 118 -9 141 -19 20 -87 26 -112 11z
m35 -141 c0 -28 -17 -47 -42 -47 -24 0 -23 19 4 47 27 29 38 29 38 0z"/>
</g>
</svg>
