<!-- <svg width="181" height="65" viewBox="0 0 181 65" fill="none" xmlns="http://www.w3.org/2000/svg"> -->
<svg width="221" height="85" viewBox="0 0 181 65" fill="none" xmlns="http://www.w3.org/2000/svg">
<mask id="path-1-outside-1_309_55" maskUnits="userSpaceOnUse" x="0" y="-1" width="182" height="67" fill="black">
<rect fill="white" y="-1" width="182" height="67"/>
<path d="M15.25 58.21C14.83 60.0767 13.3833 61.22 10.91 61.64C8.62333 62.06 6.45333 61.8033 4.4 60.87C2.11333 59.89 1.11 58.5133 1.39 56.74C1.11 54.0333 2.53333 48.1533 5.66 39.1C10.3267 25.52 14.9933 15.8133 19.66 9.98C20.8733 8.48666 21.9 7.53 22.74 7.11C23.6267 6.64333 24.63 6.22333 25.75 5.85C26.87 5.47666 28.0367 5.12666 29.25 4.8C31.6767 4.14666 33.9633 3.70333 36.11 3.47C38.3033 3.19 40.2633 3.44667 41.99 4.24C43.7167 4.98666 45.0467 6.10666 45.98 7.6C46.96 9.09333 47.5667 10.8667 47.8 12.92C48.0333 14.9267 47.9633 17.05 47.59 19.29C47.2167 21.4833 46.54 23.7233 45.56 26.01C44.58 28.25 43.3433 30.35 41.85 32.31C38.5833 36.6033 34.7567 39.38 30.37 40.64L31.07 41.83C31.6767 42.7633 32.4 43.79 33.24 44.91C34.1267 46.03 34.99 47.1733 35.83 48.34C36.7167 49.5067 37.51 50.6733 38.21 51.84C38.91 53.0067 39.4233 54.1033 39.75 55.13C40.4967 57.4167 39.9133 59.0733 38 60.1C36.46 61.0333 35.2467 61.2667 34.36 60.8C33.9867 60.5667 33.6133 60.2633 33.24 59.89C32.8667 59.5633 32.3533 59.2833 31.7 59.05C28.9467 59.8433 26.8467 59.1433 25.4 56.95C24.5133 55.55 23.8367 54.2667 23.37 53.1C22.9033 51.9333 22.5067 50.9533 22.18 50.16C21.34 48.4333 20.3833 46.94 19.31 45.68C18.7967 46.94 18.2133 48.55 17.56 50.51C16.7667 52.9833 15.88 55.55 14.9 58.21H15.25ZM29.39 17.47C28.5033 19.4767 27.8967 20.8767 27.57 21.67C26.9167 23.2567 26.1933 25.0067 25.4 26.92C25.26 27.9467 25.1433 28.67 25.05 29.09L26.03 28.11L27.22 27.55C28.06 27.0833 28.83 26.6633 29.53 26.29C30.23 25.9167 30.86 25.45 31.42 24.89C32.4933 23.8167 33.4267 22.0667 34.22 19.64C34.22 19.1733 34.29 18.7067 34.43 18.24C34.6167 17.7733 34.7333 17.3067 34.78 16.84C34.9667 15.8133 34.5467 15.09 33.52 14.67C32.5867 14.5767 31.42 15.3467 30.02 16.98C29.74 17.3067 29.53 17.47 29.39 17.47ZM68.1722 47.64C67.2855 48.06 66.4222 48.3867 65.5822 48.62C64.7422 48.8533 63.7622 49.0867 62.6422 49.32C59.7022 49.9267 57.5789 50.2767 56.2722 50.37C56.4122 50.8367 57.1122 51.3967 58.3722 52.05C59.2122 52.19 60.1222 52.0733 61.1022 51.7C62.1289 51.28 63.1789 50.9067 64.2522 50.58C65.3722 50.2067 66.4455 49.9967 67.4722 49.95C68.5455 49.9033 69.5489 50.3 70.4822 51.14C70.8555 51.98 71.1589 52.47 71.3922 52.61C71.6255 52.75 71.8355 52.82 72.0222 52.82C72.2089 52.82 72.4189 52.89 72.6522 53.03C72.8855 53.17 73.2122 53.7067 73.6322 54.64C74.0989 55.5733 73.9822 56.46 73.2822 57.3C72.6289 58.14 71.6022 58.8633 70.2022 59.47C68.8022 60.0767 67.1689 60.5667 65.3022 60.94C63.4355 61.3133 61.5689 61.57 59.7022 61.71C55.5022 62.0367 52.3055 61.71 50.1122 60.73C46.9389 59.6567 44.8855 57.5333 43.9522 54.36C42.7389 50.16 43.4155 45.26 45.9822 39.66C47.1489 37.0467 48.9922 34.2467 51.5122 31.26C53.7055 28.6467 56.1555 26.7567 58.8622 25.59C61.9889 24.2367 65.2555 23.6067 68.6622 23.7C72.3022 23.7933 74.8222 25.38 76.2222 28.46C76.9222 30.0933 77.0622 32.38 76.6422 35.32C75.8955 39.1467 74.9155 41.8533 73.7022 43.44C72.4889 44.98 70.6455 46.38 68.1722 47.64ZM64.1122 36.58C61.6389 36.0667 59.7022 37.4667 58.3022 40.78C57.8822 41.6667 57.5555 42.6 57.3222 43.58C58.9089 43.7667 60.5889 42.88 62.3622 40.92C63.0155 40.1267 63.5055 39.3333 63.8322 38.54C64.1589 37.7 64.2522 37.0467 64.1122 36.58ZM102.852 59.68C101.032 61.1733 98.8617 62.2933 96.3417 63.04C93.8684 63.8333 91.3717 64.2533 88.8517 64.3C86.3317 64.3467 83.9751 64.0433 81.7817 63.39C79.5884 62.7367 77.8617 61.71 76.6017 60.31C75.1084 58.7233 74.5951 57.1367 75.0617 55.55C75.2951 54.8967 75.7151 54.3833 76.3217 54.01C76.8817 53.6367 77.5817 53.5433 78.4217 53.73C78.9817 53.7767 79.3784 53.6367 79.6117 53.31C79.8917 52.9367 80.1251 52.54 80.3117 52.12C80.4984 51.6533 80.7084 51.2333 80.9417 50.86C81.1751 50.44 81.5484 50.23 82.0617 50.23C90.2751 50.4633 94.5451 49.74 94.8717 48.06C94.3117 47.5467 93.6117 47.1033 92.7717 46.73C91.9784 46.3567 91.1617 45.9833 90.3217 45.61C88.2684 44.6767 86.8917 43.65 86.1917 42.53C85.3051 42.0633 84.6284 40.9433 84.1617 39.17C83.9284 38.3767 83.8117 37.56 83.8117 36.72C83.8117 35.88 83.9517 35.11 84.2317 34.41C84.0917 32.59 85.2117 30.5833 87.5917 28.39C88.2451 27.7833 89.0617 27.13 90.0417 26.43C91.0217 25.73 92.4917 25.0533 94.4517 24.4C96.4117 23.7467 98.3484 23.28 100.262 23C102.222 22.6733 103.972 22.5567 105.512 22.65C107.098 22.7433 108.218 23.1167 108.872 23.77C109.572 24.4233 110.108 25.24 110.482 26.22C110.902 27.2 111.042 28.1567 110.902 29.09C110.528 31.19 108.802 32.6367 105.722 33.43C101.848 33.99 99.9817 34.5033 100.122 34.97C100.122 35.0633 99.9584 35.18 99.6317 35.32C103.225 37.7933 105.722 40.22 107.122 42.6C109.035 45.8667 109.315 49.5067 107.962 53.52C108.195 54.8267 107.028 56.46 104.462 58.42C103.855 58.8867 103.318 59.3067 102.852 59.68ZM131.892 5.64L131.962 5.36L132.592 4.73C133.105 3.51666 133.665 2.79333 134.272 2.56C134.599 2.46666 135.019 2.35 135.532 2.21C136.045 2.07 136.722 1.72 137.562 1.16C137.889 0.506664 138.565 0.226664 139.592 0.319996C140.619 0.366665 141.622 0.693331 142.602 1.3C143.629 1.86 144.445 2.65333 145.052 3.68C145.705 4.70667 145.869 5.78 145.542 6.9C145.215 7.97333 144.935 8.79 144.702 9.35C144.515 9.86333 144.305 10.3533 144.072 10.82C143.885 11.2867 143.629 11.8233 143.302 12.43C143.022 12.99 142.649 13.76 142.182 14.74L139.872 19.57C139.639 20.1767 139.429 20.5267 139.242 20.62C139.102 20.7133 138.962 20.8767 138.822 21.11C139.242 21.0167 139.592 20.9467 139.872 20.9C140.152 20.8533 140.432 20.8067 140.712 20.76C141.365 20.6667 142.112 20.5733 142.952 20.48C143.465 20.5733 143.909 20.62 144.282 20.62H145.262C145.822 20.62 146.499 20.7833 147.292 21.11C148.085 21.39 148.599 21.9033 148.832 22.65C149.065 23.3967 149.089 24.1667 148.902 24.96C148.715 25.7067 148.342 26.4067 147.782 27.06C147.222 27.7133 146.499 28.0633 145.612 28.11C141.552 29.23 138.659 29.8367 136.932 29.93L136.512 30.42V30.49C136.045 31.61 135.532 33.0333 134.972 34.76C134.459 36.44 133.875 38.2833 133.222 40.29C132.615 42.25 131.985 44.3033 131.332 46.45C130.679 48.55 130.002 50.58 129.302 52.54C127.062 59.12 125.429 62.69 124.402 63.25C124.029 63.4367 123.632 63.5533 123.212 63.6C122.839 63.6933 122.629 63.7633 122.582 63.81C120.949 63.7167 119.595 63.39 118.522 62.83C117.449 62.27 116.725 61.7333 116.352 61.22C115.979 60.7067 115.885 60.1233 116.072 59.47C116.959 51.35 118.732 42.46 121.392 32.8C120.459 32.8 119.805 32.8933 119.432 33.08C118.732 33.4533 117.892 33.6633 116.912 33.71H116.842C116.095 33.6633 115.419 33.3133 114.812 32.66C114.205 32.0067 113.832 31.26 113.692 30.42C113.552 29.58 113.692 28.7167 114.112 27.83C114.532 26.9433 115.372 26.2433 116.632 25.73C118.125 25.31 119.222 24.96 119.922 24.68C121.275 24.12 122.395 23.7233 123.282 23.49C124.215 23.2567 124.729 23.1167 124.822 23.07C124.962 22.9767 125.055 22.9067 125.102 22.86C125.242 22.7667 125.592 22.72 126.152 22.72C126.432 21.3667 126.712 19.99 126.992 18.59C127.272 17.19 127.622 15.7667 128.042 14.32C128.975 10.96 130.259 8.06666 131.892 5.64ZM153.21 28.11C154.19 27.41 155.403 27.2467 156.85 27.62C157.13 27.6667 157.41 27.69 157.69 27.69C158.717 25.59 160.49 24.4933 163.01 24.4C163.663 24.3533 164.573 24.2367 165.74 24.05C166.907 23.8633 168.307 23.91 169.94 24.19C171.62 24.47 173.09 24.96 174.35 25.66C177.103 27.1533 178.76 29.3 179.32 32.1C180.44 36.2067 180.277 40.6867 178.83 45.54C177.29 50.9067 174.677 55.2 170.99 58.42C169.31 59.9133 167.537 60.8467 165.67 61.22C163.803 61.64 162.123 61.8733 160.63 61.92C159.137 61.9667 157.76 61.9667 156.5 61.92C155.287 61.92 154.097 61.8033 152.93 61.57C150.41 61.0567 148.333 59.8667 146.7 58C144.787 55.9 143.97 52.6333 144.25 48.2C144.437 44.28 145.417 40.3367 147.19 36.37C149.01 32.3567 151.017 29.6033 153.21 28.11ZM165.53 42.18C164.363 42.5533 163.267 42.7167 162.24 42.67C161.727 43.1833 161.26 43.7433 160.84 44.35C160.467 44.91 159.953 45.4467 159.3 45.96C158.647 46.4267 158.32 46.6133 158.32 46.52C157.527 47.64 156.873 48.8067 156.36 50.02C155.847 51.1867 155.847 52.3767 156.36 53.59C158.227 53.7767 159.603 53.73 160.49 53.45C161.377 53.17 162.193 52.6333 162.94 51.84C163.733 51.0467 164.34 50.1133 164.76 49.04C165.6 47.0333 165.857 44.7467 165.53 42.18Z"/>
</mask>
<path d="M15.25 58.21C14.83 60.0767 13.3833 61.22 10.91 61.64C8.62333 62.06 6.45333 61.8033 4.4 60.87C2.11333 59.89 1.11 58.5133 1.39 56.74C1.11 54.0333 2.53333 48.1533 5.66 39.1C10.3267 25.52 14.9933 15.8133 19.66 9.98C20.8733 8.48666 21.9 7.53 22.74 7.11C23.6267 6.64333 24.63 6.22333 25.75 5.85C26.87 5.47666 28.0367 5.12666 29.25 4.8C31.6767 4.14666 33.9633 3.70333 36.11 3.47C38.3033 3.19 40.2633 3.44667 41.99 4.24C43.7167 4.98666 45.0467 6.10666 45.98 7.6C46.96 9.09333 47.5667 10.8667 47.8 12.92C48.0333 14.9267 47.9633 17.05 47.59 19.29C47.2167 21.4833 46.54 23.7233 45.56 26.01C44.58 28.25 43.3433 30.35 41.85 32.31C38.5833 36.6033 34.7567 39.38 30.37 40.64L31.07 41.83C31.6767 42.7633 32.4 43.79 33.24 44.91C34.1267 46.03 34.99 47.1733 35.83 48.34C36.7167 49.5067 37.51 50.6733 38.21 51.84C38.91 53.0067 39.4233 54.1033 39.75 55.13C40.4967 57.4167 39.9133 59.0733 38 60.1C36.46 61.0333 35.2467 61.2667 34.36 60.8C33.9867 60.5667 33.6133 60.2633 33.24 59.89C32.8667 59.5633 32.3533 59.2833 31.7 59.05C28.9467 59.8433 26.8467 59.1433 25.4 56.95C24.5133 55.55 23.8367 54.2667 23.37 53.1C22.9033 51.9333 22.5067 50.9533 22.18 50.16C21.34 48.4333 20.3833 46.94 19.31 45.68C18.7967 46.94 18.2133 48.55 17.56 50.51C16.7667 52.9833 15.88 55.55 14.9 58.21H15.25ZM29.39 17.47C28.5033 19.4767 27.8967 20.8767 27.57 21.67C26.9167 23.2567 26.1933 25.0067 25.4 26.92C25.26 27.9467 25.1433 28.67 25.05 29.09L26.03 28.11L27.22 27.55C28.06 27.0833 28.83 26.6633 29.53 26.29C30.23 25.9167 30.86 25.45 31.42 24.89C32.4933 23.8167 33.4267 22.0667 34.22 19.64C34.22 19.1733 34.29 18.7067 34.43 18.24C34.6167 17.7733 34.7333 17.3067 34.78 16.84C34.9667 15.8133 34.5467 15.09 33.52 14.67C32.5867 14.5767 31.42 15.3467 30.02 16.98C29.74 17.3067 29.53 17.47 29.39 17.47ZM68.1722 47.64C67.2855 48.06 66.4222 48.3867 65.5822 48.62C64.7422 48.8533 63.7622 49.0867 62.6422 49.32C59.7022 49.9267 57.5789 50.2767 56.2722 50.37C56.4122 50.8367 57.1122 51.3967 58.3722 52.05C59.2122 52.19 60.1222 52.0733 61.1022 51.7C62.1289 51.28 63.1789 50.9067 64.2522 50.58C65.3722 50.2067 66.4455 49.9967 67.4722 49.95C68.5455 49.9033 69.5489 50.3 70.4822 51.14C70.8555 51.98 71.1589 52.47 71.3922 52.61C71.6255 52.75 71.8355 52.82 72.0222 52.82C72.2089 52.82 72.4189 52.89 72.6522 53.03C72.8855 53.17 73.2122 53.7067 73.6322 54.64C74.0989 55.5733 73.9822 56.46 73.2822 57.3C72.6289 58.14 71.6022 58.8633 70.2022 59.47C68.8022 60.0767 67.1689 60.5667 65.3022 60.94C63.4355 61.3133 61.5689 61.57 59.7022 61.71C55.5022 62.0367 52.3055 61.71 50.1122 60.73C46.9389 59.6567 44.8855 57.5333 43.9522 54.36C42.7389 50.16 43.4155 45.26 45.9822 39.66C47.1489 37.0467 48.9922 34.2467 51.5122 31.26C53.7055 28.6467 56.1555 26.7567 58.8622 25.59C61.9889 24.2367 65.2555 23.6067 68.6622 23.7C72.3022 23.7933 74.8222 25.38 76.2222 28.46C76.9222 30.0933 77.0622 32.38 76.6422 35.32C75.8955 39.1467 74.9155 41.8533 73.7022 43.44C72.4889 44.98 70.6455 46.38 68.1722 47.64ZM64.1122 36.58C61.6389 36.0667 59.7022 37.4667 58.3022 40.78C57.8822 41.6667 57.5555 42.6 57.3222 43.58C58.9089 43.7667 60.5889 42.88 62.3622 40.92C63.0155 40.1267 63.5055 39.3333 63.8322 38.54C64.1589 37.7 64.2522 37.0467 64.1122 36.58ZM102.852 59.68C101.032 61.1733 98.8617 62.2933 96.3417 63.04C93.8684 63.8333 91.3717 64.2533 88.8517 64.3C86.3317 64.3467 83.9751 64.0433 81.7817 63.39C79.5884 62.7367 77.8617 61.71 76.6017 60.31C75.1084 58.7233 74.5951 57.1367 75.0617 55.55C75.2951 54.8967 75.7151 54.3833 76.3217 54.01C76.8817 53.6367 77.5817 53.5433 78.4217 53.73C78.9817 53.7767 79.3784 53.6367 79.6117 53.31C79.8917 52.9367 80.1251 52.54 80.3117 52.12C80.4984 51.6533 80.7084 51.2333 80.9417 50.86C81.1751 50.44 81.5484 50.23 82.0617 50.23C90.2751 50.4633 94.5451 49.74 94.8717 48.06C94.3117 47.5467 93.6117 47.1033 92.7717 46.73C91.9784 46.3567 91.1617 45.9833 90.3217 45.61C88.2684 44.6767 86.8917 43.65 86.1917 42.53C85.3051 42.0633 84.6284 40.9433 84.1617 39.17C83.9284 38.3767 83.8117 37.56 83.8117 36.72C83.8117 35.88 83.9517 35.11 84.2317 34.41C84.0917 32.59 85.2117 30.5833 87.5917 28.39C88.2451 27.7833 89.0617 27.13 90.0417 26.43C91.0217 25.73 92.4917 25.0533 94.4517 24.4C96.4117 23.7467 98.3484 23.28 100.262 23C102.222 22.6733 103.972 22.5567 105.512 22.65C107.098 22.7433 108.218 23.1167 108.872 23.77C109.572 24.4233 110.108 25.24 110.482 26.22C110.902 27.2 111.042 28.1567 110.902 29.09C110.528 31.19 108.802 32.6367 105.722 33.43C101.848 33.99 99.9817 34.5033 100.122 34.97C100.122 35.0633 99.9584 35.18 99.6317 35.32C103.225 37.7933 105.722 40.22 107.122 42.6C109.035 45.8667 109.315 49.5067 107.962 53.52C108.195 54.8267 107.028 56.46 104.462 58.42C103.855 58.8867 103.318 59.3067 102.852 59.68ZM131.892 5.64L131.962 5.36L132.592 4.73C133.105 3.51666 133.665 2.79333 134.272 2.56C134.599 2.46666 135.019 2.35 135.532 2.21C136.045 2.07 136.722 1.72 137.562 1.16C137.889 0.506664 138.565 0.226664 139.592 0.319996C140.619 0.366665 141.622 0.693331 142.602 1.3C143.629 1.86 144.445 2.65333 145.052 3.68C145.705 4.70667 145.869 5.78 145.542 6.9C145.215 7.97333 144.935 8.79 144.702 9.35C144.515 9.86333 144.305 10.3533 144.072 10.82C143.885 11.2867 143.629 11.8233 143.302 12.43C143.022 12.99 142.649 13.76 142.182 14.74L139.872 19.57C139.639 20.1767 139.429 20.5267 139.242 20.62C139.102 20.7133 138.962 20.8767 138.822 21.11C139.242 21.0167 139.592 20.9467 139.872 20.9C140.152 20.8533 140.432 20.8067 140.712 20.76C141.365 20.6667 142.112 20.5733 142.952 20.48C143.465 20.5733 143.909 20.62 144.282 20.62H145.262C145.822 20.62 146.499 20.7833 147.292 21.11C148.085 21.39 148.599 21.9033 148.832 22.65C149.065 23.3967 149.089 24.1667 148.902 24.96C148.715 25.7067 148.342 26.4067 147.782 27.06C147.222 27.7133 146.499 28.0633 145.612 28.11C141.552 29.23 138.659 29.8367 136.932 29.93L136.512 30.42V30.49C136.045 31.61 135.532 33.0333 134.972 34.76C134.459 36.44 133.875 38.2833 133.222 40.29C132.615 42.25 131.985 44.3033 131.332 46.45C130.679 48.55 130.002 50.58 129.302 52.54C127.062 59.12 125.429 62.69 124.402 63.25C124.029 63.4367 123.632 63.5533 123.212 63.6C122.839 63.6933 122.629 63.7633 122.582 63.81C120.949 63.7167 119.595 63.39 118.522 62.83C117.449 62.27 116.725 61.7333 116.352 61.22C115.979 60.7067 115.885 60.1233 116.072 59.47C116.959 51.35 118.732 42.46 121.392 32.8C120.459 32.8 119.805 32.8933 119.432 33.08C118.732 33.4533 117.892 33.6633 116.912 33.71H116.842C116.095 33.6633 115.419 33.3133 114.812 32.66C114.205 32.0067 113.832 31.26 113.692 30.42C113.552 29.58 113.692 28.7167 114.112 27.83C114.532 26.9433 115.372 26.2433 116.632 25.73C118.125 25.31 119.222 24.96 119.922 24.68C121.275 24.12 122.395 23.7233 123.282 23.49C124.215 23.2567 124.729 23.1167 124.822 23.07C124.962 22.9767 125.055 22.9067 125.102 22.86C125.242 22.7667 125.592 22.72 126.152 22.72C126.432 21.3667 126.712 19.99 126.992 18.59C127.272 17.19 127.622 15.7667 128.042 14.32C128.975 10.96 130.259 8.06666 131.892 5.64ZM153.21 28.11C154.19 27.41 155.403 27.2467 156.85 27.62C157.13 27.6667 157.41 27.69 157.69 27.69C158.717 25.59 160.49 24.4933 163.01 24.4C163.663 24.3533 164.573 24.2367 165.74 24.05C166.907 23.8633 168.307 23.91 169.94 24.19C171.62 24.47 173.09 24.96 174.35 25.66C177.103 27.1533 178.76 29.3 179.32 32.1C180.44 36.2067 180.277 40.6867 178.83 45.54C177.29 50.9067 174.677 55.2 170.99 58.42C169.31 59.9133 167.537 60.8467 165.67 61.22C163.803 61.64 162.123 61.8733 160.63 61.92C159.137 61.9667 157.76 61.9667 156.5 61.92C155.287 61.92 154.097 61.8033 152.93 61.57C150.41 61.0567 148.333 59.8667 146.7 58C144.787 55.9 143.97 52.6333 144.25 48.2C144.437 44.28 145.417 40.3367 147.19 36.37C149.01 32.3567 151.017 29.6033 153.21 28.11ZM165.53 42.18C164.363 42.5533 163.267 42.7167 162.24 42.67C161.727 43.1833 161.26 43.7433 160.84 44.35C160.467 44.91 159.953 45.4467 159.3 45.96C158.647 46.4267 158.32 46.6133 158.32 46.52C157.527 47.64 156.873 48.8067 156.36 50.02C155.847 51.1867 155.847 52.3767 156.36 53.59C158.227 53.7767 159.603 53.73 160.49 53.45C161.377 53.17 162.193 52.6333 162.94 51.84C163.733 51.0467 164.34 50.1133 164.76 49.04C165.6 47.0333 165.857 44.7467 165.53 42.18Z" fill="white"/>
<path d="M15.25 58.21L16.2256 58.4295L16.5 57.21H15.25V58.21ZM10.91 61.64L10.7426 60.654L10.7293 60.6565L10.91 61.64ZM4.4 60.87L4.8138 59.9596L4.80391 59.9551L4.79392 59.9509L4.4 60.87ZM1.39 56.74L2.37776 56.896L2.39813 56.767L2.38469 56.6371L1.39 56.74ZM5.66 39.1L6.60522 39.4264L6.60572 39.425L5.66 39.1ZM19.66 9.98L18.8839 9.34939L18.8791 9.3553L19.66 9.98ZM22.74 7.11L23.1872 8.00442L23.1965 7.99977L23.2057 7.99491L22.74 7.11ZM25.75 5.85L25.4338 4.90131L25.4338 4.90131L25.75 5.85ZM29.25 4.8L28.99 3.83438V3.83438L29.25 4.8ZM36.11 3.47L36.2181 4.46414L36.2274 4.46313L36.2366 4.46195L36.11 3.47ZM41.99 4.24L41.5725 5.14868L41.5827 5.15338L41.5931 5.15786L41.99 4.24ZM45.98 7.6L45.132 8.13L45.1379 8.13939L45.144 8.14865L45.98 7.6ZM47.8 12.92L46.8064 13.0329L46.8067 13.0355L47.8 12.92ZM47.59 19.29L48.5758 19.4578L48.5764 19.4544L47.59 19.29ZM45.56 26.01L46.4762 26.4108L46.4791 26.4039L45.56 26.01ZM41.85 32.31L41.0546 31.704L41.0542 31.7045L41.85 32.31ZM30.37 40.64L30.0939 39.6789L28.854 40.035L29.5081 41.147L30.37 40.64ZM31.07 41.83L30.2081 42.337L30.2194 42.3563L30.2316 42.375L31.07 41.83ZM33.24 44.91L32.44 45.51L32.4478 45.5205L32.456 45.5307L33.24 44.91ZM35.83 48.34L35.0185 48.9243L35.026 48.9348L35.0338 48.9451L35.83 48.34ZM38.21 51.84L39.0675 51.3255L38.21 51.84ZM39.75 55.13L38.7971 55.4332L38.7994 55.4404L39.75 55.13ZM38 60.1L37.5272 59.2188L37.5041 59.2312L37.4817 59.2448L38 60.1ZM34.36 60.8L33.83 61.648L33.8614 61.6676L33.8943 61.6849L34.36 60.8ZM33.24 59.89L33.9471 59.1829L33.9236 59.1593L33.8985 59.1374L33.24 59.89ZM31.7 59.05L32.0363 58.1083L31.7328 57.9999L31.4231 58.0891L31.7 59.05ZM25.4 56.95L24.5552 57.4851L24.5601 57.4929L24.5652 57.5006L25.4 56.95ZM23.37 53.1L22.4415 53.4714L23.37 53.1ZM22.18 50.16L23.1047 49.7793L23.0928 49.7505L23.0792 49.7225L22.18 50.16ZM19.31 45.68L20.0712 45.0315L19.0045 43.7793L18.3839 45.3027L19.31 45.68ZM17.56 50.51L16.6113 50.1938L16.6078 50.2046L17.56 50.51ZM14.9 58.21L13.9617 57.8643L13.4659 59.21H14.9V58.21ZM29.39 17.47V16.47H28.7386L28.4753 17.0658L29.39 17.47ZM27.57 21.67L26.6453 21.2892V21.2892L27.57 21.67ZM25.4 26.92L24.4763 26.537L24.4267 26.6566L24.4092 26.7849L25.4 26.92ZM25.05 29.09L24.0738 28.8731L23.3289 32.2253L25.7571 29.7971L25.05 29.09ZM26.03 28.11L25.6042 27.2052L25.4463 27.2795L25.3229 27.4029L26.03 28.11ZM27.22 27.55L27.6458 28.4548L27.6762 28.4405L27.7056 28.4242L27.22 27.55ZM29.53 26.29L30.0006 27.1724L29.53 26.29ZM31.42 24.89L30.7129 24.1829L31.42 24.89ZM34.22 19.64L35.1705 19.9507L35.22 19.7993V19.64H34.22ZM34.43 18.24L33.5015 17.8686L33.485 17.91L33.4722 17.9526L34.43 18.24ZM34.78 16.84L33.7961 16.6611L33.789 16.7006L33.785 16.7405L34.78 16.84ZM33.52 14.67L33.8986 13.7445L33.7641 13.6894L33.6195 13.675L33.52 14.67ZM30.02 16.98L30.7793 17.6308L30.02 16.98ZM14.2744 57.9905C14.1126 58.7094 13.7663 59.259 13.2299 59.6829C12.6771 60.1198 11.8709 60.4625 10.7426 60.6541L11.0774 62.6259C12.4225 62.3975 13.5762 61.9585 14.4701 61.2521C15.3803 60.5326 15.9674 59.5773 16.2256 58.4295L14.2744 57.9905ZM10.7293 60.6565C8.63707 61.0407 6.67511 60.8057 4.8138 59.9596L3.9862 61.7804C6.23156 62.801 8.6096 63.0793 11.0907 62.6235L10.7293 60.6565ZM4.79392 59.9509C3.74449 59.5011 3.09853 59.0046 2.74064 58.5135C2.40452 58.0523 2.2767 57.536 2.37776 56.896L0.402237 56.584C0.223301 57.7173 0.457144 58.776 1.12436 59.6915C1.7698 60.5771 2.76884 61.2589 4.00608 61.7891L4.79392 59.9509ZM2.38469 56.6371C2.26375 55.468 2.50988 53.4665 3.21943 50.5353C3.92065 47.6384 5.04702 43.9382 6.60522 39.4264L4.71478 38.7736C3.14631 43.3151 1.99768 47.0816 1.27557 50.0647C0.561786 53.0135 0.236251 55.3053 0.395308 56.8429L2.38469 56.6371ZM6.60572 39.425C11.2629 25.8726 15.8849 16.2996 20.4409 10.6047L18.8791 9.3553C14.1018 15.327 9.39043 25.1674 4.71428 38.775L6.60572 39.425ZM20.4361 10.6106C21.6344 9.1358 22.5491 8.32347 23.1872 8.00442L22.2928 6.21557C21.2509 6.73652 20.1123 7.83753 18.8839 9.3494L20.4361 10.6106ZM23.2057 7.99491C24.0368 7.55751 24.9889 7.15779 26.0662 6.79868L25.4338 4.90131C24.2711 5.28887 23.2165 5.72915 22.2743 6.22508L23.2057 7.99491ZM26.0662 6.79868C27.1665 6.43192 28.3144 6.08751 29.51 5.76561L28.99 3.83438C27.759 4.16582 26.5735 4.52141 25.4338 4.90131L26.0662 6.79868ZM29.51 5.76561C31.8947 5.12358 34.1302 4.69108 36.2181 4.46414L36.0019 2.47585C33.7965 2.71558 31.4587 3.16975 28.99 3.83438L29.51 5.76561ZM36.2366 4.46195C38.2753 4.2017 40.0421 4.44552 41.5725 5.14868L42.4075 3.33132C40.4846 2.44781 38.3314 2.1783 35.9834 2.47805L36.2366 4.46195ZM41.5931 5.15786C43.1469 5.82978 44.3137 6.82069 45.132 8.13L46.828 7.07C45.7797 5.39264 44.2864 4.14355 42.3869 3.32214L41.5931 5.15786ZM45.144 8.14865C46.0255 9.49194 46.588 11.1107 46.8064 13.0329L48.7936 12.8071C48.5454 10.6226 47.8945 8.69472 46.816 7.05134L45.144 8.14865ZM46.8067 13.0355C47.028 14.9383 46.9634 16.9668 46.6036 19.1256L48.5764 19.4544C48.9633 17.1332 49.0387 14.9151 48.7933 12.8045L46.8067 13.0355ZM46.6042 19.1222C46.2455 21.2293 45.5934 23.3935 44.6409 25.6161L46.4791 26.4039C47.4866 24.0532 48.1878 21.7374 48.5758 19.4578L46.6042 19.1222ZM44.6438 25.6092C43.696 27.7756 42.5 29.8068 41.0546 31.704L42.6454 32.916C44.1867 30.8932 45.464 28.7244 46.4762 26.4108L44.6438 25.6092ZM41.0542 31.7045C37.8934 35.8586 34.2378 38.4886 30.0939 39.6789L30.6461 41.6011C35.2756 40.2714 39.2732 37.3481 42.6458 32.9155L41.0542 31.7045ZM29.5081 41.147L30.2081 42.337L31.9319 41.323L31.2319 40.133L29.5081 41.147ZM30.2316 42.375C30.853 43.3311 31.5898 44.3764 32.44 45.51L34.04 44.31C33.2102 43.2036 32.5003 42.1955 31.9084 41.285L30.2316 42.375ZM32.456 45.5307C33.3331 46.6387 34.1873 47.7699 35.0185 48.9243L36.6415 47.7557C35.7927 46.5768 34.9202 45.4213 34.024 44.2893L32.456 45.5307ZM35.0338 48.9451C35.9001 50.0849 36.6727 51.2214 37.3525 52.3545L39.0675 51.3255C38.3474 50.1253 37.5332 48.9284 36.6262 47.7349L35.0338 48.9451ZM37.3525 52.3545C38.0225 53.4712 38.4991 54.4968 38.7971 55.4332L40.7029 54.8268C40.3476 53.7099 39.7975 52.5422 39.0675 51.3255L37.3525 52.3545ZM38.7994 55.4404C39.1293 56.4508 39.1251 57.1993 38.9293 57.7554C38.7389 58.2961 38.3184 58.7943 37.5272 59.2188L38.4728 60.9812C39.595 60.379 40.4228 59.5355 40.8157 58.4196C41.2033 57.319 41.1173 56.0958 40.7006 54.8196L38.7994 55.4404ZM37.4817 59.2448C36.0038 60.1405 35.2168 60.1209 34.8257 59.9151L33.8943 61.6849C35.2766 62.4125 36.9162 61.9262 38.5183 60.9552L37.4817 59.2448ZM34.89 59.952C34.5921 59.7658 34.2772 59.5129 33.9471 59.1829L32.5329 60.5971C32.9495 61.0137 33.3813 61.3675 33.83 61.648L34.89 59.952ZM33.8985 59.1374C33.401 58.7021 32.7643 58.3682 32.0363 58.1083L31.3637 59.9917C31.9424 60.1984 32.3323 60.4245 32.5815 60.6426L33.8985 59.1374ZM31.4231 58.0891C30.184 58.4461 29.185 58.4409 28.3762 58.1713C27.5767 57.9048 26.8587 57.3453 26.2348 56.3994L24.5652 57.5006C25.388 58.748 26.4433 59.6352 27.7438 60.0687C29.0351 60.4991 30.4627 60.4472 31.9769 60.0109L31.4231 58.0891ZM26.2448 56.4149C25.3813 55.0515 24.7365 53.8236 24.2985 52.7286L22.4415 53.4714C22.9369 54.7098 23.6454 56.0485 24.5552 57.4851L26.2448 56.4149ZM24.2985 52.7286C23.8311 51.5601 23.4331 50.5768 23.1047 49.7793L21.2553 50.5407C21.5803 51.3299 21.9756 52.3066 22.4415 53.4714L24.2985 52.7286ZM23.0792 49.7225C22.2081 47.9318 21.2072 46.365 20.0712 45.0315L18.5488 46.3285C19.5595 47.515 20.4719 48.9349 21.2808 50.5975L23.0792 49.7225ZM18.3839 45.3027C17.8594 46.5902 17.2684 48.2225 16.6113 50.1938L18.5087 50.8262C19.1583 48.8775 19.734 47.2898 20.2361 46.0573L18.3839 45.3027ZM16.6078 50.2046C15.8192 52.6632 14.9372 55.2164 13.9617 57.8643L15.8383 58.5557C16.8228 55.8836 17.7142 53.3034 18.5122 50.8154L16.6078 50.2046ZM14.9 59.21H15.25V57.21H14.9V59.21ZM28.4753 17.0658C27.5889 19.072 26.9774 20.4827 26.6453 21.2892L28.4947 22.0507C28.8159 21.2706 29.4178 19.8813 30.3047 17.8742L28.4753 17.0658ZM26.6453 21.2892C25.9924 22.875 25.2693 24.6243 24.4763 26.537L26.3237 27.303C27.1173 25.3891 27.841 23.6383 28.4947 22.0507L26.6453 21.2892ZM24.4092 26.7849C24.2692 27.8115 24.1572 28.4979 24.0738 28.8731L26.0262 29.3069C26.1295 28.8421 26.2508 28.0818 26.3908 27.0551L24.4092 26.7849ZM25.7571 29.7971L26.7371 28.8171L25.3229 27.4029L24.3429 28.3829L25.7571 29.7971ZM26.4558 29.0148L27.6458 28.4548L26.7942 26.6452L25.6042 27.2052L26.4558 29.0148ZM27.7056 28.4242C28.5416 27.9597 29.3065 27.5425 30.0006 27.1724L29.0594 25.4076C28.3535 25.7842 27.5784 26.207 26.7344 26.6758L27.7056 28.4242ZM30.0006 27.1724C30.7875 26.7527 31.4972 26.227 32.1271 25.5971L30.7129 24.1829C30.2228 24.673 29.6725 25.0807 29.0594 25.4076L30.0006 27.1724ZM32.1271 25.5971C33.363 24.3613 34.3575 22.4377 35.1705 19.9507L33.2695 19.3293C32.4959 21.6956 31.6237 23.2721 30.7129 24.1829L32.1271 25.5971ZM35.22 19.64C35.22 19.2749 35.2746 18.9049 35.3878 18.5273L33.4722 17.9526C33.3054 18.5084 33.22 19.0718 33.22 19.64H35.22ZM35.3585 18.6114C35.5775 18.0639 35.7184 17.5059 35.775 16.9395L33.785 16.7405C33.7483 17.1074 33.6559 17.4828 33.5015 17.8686L35.3585 18.6114ZM35.7639 17.0189C35.8889 16.3314 35.8265 15.6397 35.4698 15.0254C35.1176 14.4187 34.5498 14.0108 33.8986 13.7445L33.1414 15.5955C33.5169 15.7492 33.6724 15.9129 33.7402 16.0296C33.8035 16.1386 33.8578 16.3219 33.7961 16.6611L35.7639 17.0189ZM33.6195 13.675C32.8354 13.5966 32.0788 13.891 31.3942 14.3429C30.7032 14.7989 29.9925 15.4755 29.2607 16.3292L30.7793 17.6308C31.4475 16.8511 32.0201 16.3261 32.4958 16.0121C32.9778 15.694 33.2712 15.6501 33.4205 15.665L33.6195 13.675ZM29.2607 16.3292C29.2036 16.3959 29.1555 16.4478 29.116 16.4873C29.0759 16.5274 29.0503 16.549 29.0386 16.5581C29.0247 16.5689 29.0411 16.5538 29.0852 16.5332C29.1267 16.5139 29.2344 16.47 29.39 16.47V18.47C29.8086 18.47 30.122 18.2492 30.2664 18.1369C30.4466 17.9967 30.6188 17.818 30.7793 17.6308L29.2607 16.3292ZM68.1722 47.64L68.6003 48.5437L68.6133 48.5376L68.6261 48.531L68.1722 47.64ZM65.5822 48.62L65.8498 49.5835L65.5822 48.62ZM62.6422 49.32L62.8443 50.2994L62.8461 50.299L62.6422 49.32ZM56.2722 50.37L56.2009 49.3725L54.9556 49.4615L55.3144 50.6573L56.2722 50.37ZM58.3722 52.05L57.9119 52.9378L58.052 53.0104L58.2078 53.0364L58.3722 52.05ZM61.1022 51.7L61.4582 52.6345L61.4696 52.6302L61.4808 52.6255L61.1022 51.7ZM64.2522 50.58L64.5434 51.5367L64.5559 51.5328L64.5684 51.5287L64.2522 50.58ZM67.4722 49.95L67.4287 48.9509L67.4268 48.951L67.4722 49.95ZM70.4822 51.14L71.396 50.7339L71.3095 50.5392L71.1512 50.3967L70.4822 51.14ZM71.3922 52.61L71.9067 51.7525L71.3922 52.61ZM73.6322 54.64L72.7203 55.0504L72.7286 55.069L72.7378 55.0872L73.6322 54.64ZM73.2822 57.3L72.514 56.6598L72.5032 56.6728L72.4928 56.6861L73.2822 57.3ZM70.2022 59.47L70.5998 60.3876L70.2022 59.47ZM65.3022 60.94L65.4983 61.9206L65.3022 60.94ZM59.7022 61.71L59.6274 60.7128L59.6246 60.713L59.7022 61.71ZM50.1122 60.73L50.5201 59.817L50.4772 59.7978L50.4326 59.7827L50.1122 60.73ZM43.9522 54.36L42.9915 54.6375L42.9928 54.6422L43.9522 54.36ZM45.9822 39.66L46.8913 40.0767L46.8953 40.0676L45.9822 39.66ZM51.5122 31.26L52.2765 31.9049L52.2782 31.9029L51.5122 31.26ZM58.8622 25.59L59.258 26.5083L59.2594 26.5077L58.8622 25.59ZM68.6622 23.7L68.6348 24.6996L68.6366 24.6997L68.6622 23.7ZM76.2222 28.46L77.1413 28.0661L77.1371 28.0561L77.1326 28.0462L76.2222 28.46ZM76.6422 35.32L77.6237 35.5115L77.6285 35.4866L77.6321 35.4614L76.6422 35.32ZM73.7022 43.44L74.4877 44.0589L74.4922 44.0532L74.4966 44.0475L73.7022 43.44ZM64.1122 36.58L65.07 36.2927L64.8988 35.7219L64.3154 35.6009L64.1122 36.58ZM58.3022 40.78L59.2059 41.2081L59.215 41.1888L59.2233 41.1692L58.3022 40.78ZM57.3222 43.58L56.3494 43.3484L56.089 44.4418L57.2053 44.5732L57.3222 43.58ZM62.3622 40.92L63.1037 41.5909L63.1193 41.5737L63.1341 41.5557L62.3622 40.92ZM63.8322 38.54L64.7569 38.9207L64.7606 38.9116L64.7642 38.9024L63.8322 38.54ZM67.7441 46.7363C66.9028 47.1348 66.0931 47.4402 65.3145 47.6565L65.8498 49.5835C66.7513 49.3331 67.6682 48.9852 68.6003 48.5437L67.7441 46.7363ZM65.3145 47.6565C64.5009 47.8825 63.543 48.1109 62.4382 48.341L62.8461 50.299C63.9814 50.0625 64.9835 49.8242 65.8498 49.5835L65.3145 47.6565ZM62.4401 48.3406C59.5026 48.9468 57.4358 49.2843 56.2009 49.3725L56.3434 51.3675C57.7219 51.269 59.9018 50.9066 62.8443 50.2994L62.4401 48.3406ZM55.3144 50.6573C55.4741 51.1899 55.8839 51.606 56.2775 51.9209C56.6993 52.2583 57.2531 52.5962 57.9119 52.9378L58.8325 51.1622C58.2312 50.8505 57.8051 50.5817 57.5269 50.3591C57.2205 50.114 57.2102 50.0167 57.23 50.0827L55.3144 50.6573ZM58.2078 53.0364C59.2591 53.2116 60.3505 53.0564 61.4582 52.6345L60.7462 50.7655C59.8938 51.0902 59.1653 51.1684 58.5366 51.0636L58.2078 53.0364ZM61.4808 52.6255C62.4785 52.2174 63.4993 51.8544 64.5434 51.5367L63.961 49.6233C62.8584 49.9589 61.7792 50.3426 60.7236 50.7745L61.4808 52.6255ZM64.5684 51.5287C65.6136 51.1803 66.5956 50.9909 67.5176 50.949L67.4268 48.951C66.2955 49.0025 65.1308 49.233 63.936 49.6313L64.5684 51.5287ZM67.5156 50.9491C68.2832 50.9157 69.0393 51.1868 69.8132 51.8833L71.1512 50.3967C70.0584 49.4132 68.8079 48.891 67.4287 48.9509L67.5156 50.9491ZM69.5684 51.5461C69.764 51.9863 69.9541 52.3646 70.1394 52.6639C70.3012 52.9252 70.5406 53.2652 70.8777 53.4675L71.9067 51.7525C71.9765 51.7944 71.9947 51.8254 71.9653 51.7909C71.9408 51.7622 71.8987 51.7061 71.84 51.6111C71.7219 51.4204 71.5737 51.1337 71.396 50.7339L69.5684 51.5461ZM70.8777 53.4675C71.1996 53.6607 71.5896 53.82 72.0222 53.82V51.82C72.0542 51.82 72.0624 51.826 72.0409 51.8188C72.0188 51.8114 71.9744 51.7932 71.9067 51.7525L70.8777 53.4675ZM72.0222 53.82C71.9902 53.82 71.982 53.814 72.0035 53.8212C72.0256 53.8286 72.0699 53.8468 72.1377 53.8875L73.1667 52.1725C72.8447 51.9793 72.4547 51.82 72.0222 51.82V53.82ZM72.1377 53.8875C72.0578 53.8395 72.0378 53.8029 72.0743 53.8469C72.1036 53.8824 72.1517 53.9485 72.218 54.0574C72.3508 54.2756 72.5181 54.6011 72.7203 55.0504L74.5441 54.2296C74.3263 53.7455 74.1203 53.3361 73.9264 53.0176C73.7618 52.7472 73.514 52.3809 73.1667 52.1725L72.1377 53.8875ZM72.7378 55.0872C72.8971 55.4059 72.9314 55.6605 72.9032 55.8745C72.8746 56.0924 72.7699 56.3527 72.514 56.6598L74.0504 57.9402C74.4945 57.4073 74.7981 56.8043 74.8861 56.1355C74.9746 55.4629 74.834 54.8075 74.5266 54.1928L72.7378 55.0872ZM72.4928 56.6861C71.9776 57.3485 71.1132 57.9854 69.8046 58.5524L70.5998 60.3876C72.0911 59.7413 73.2801 58.9315 74.0715 57.9139L72.4928 56.6861ZM69.8046 58.5524C68.4829 59.1252 66.9198 59.5967 65.1061 59.9594L65.4983 61.9206C67.4179 61.5367 69.1215 61.0282 70.5998 60.3876L69.8046 58.5524ZM65.1061 59.9594C63.2788 60.3249 61.4526 60.5759 59.6274 60.7128L59.777 62.7072C61.6851 62.5641 63.5923 62.3018 65.4983 61.9206L65.1061 59.9594ZM59.6246 60.713C55.4828 61.0352 52.4859 60.6953 50.5201 59.817L49.7042 61.643C52.1251 62.7247 55.5216 63.0382 59.7797 62.707L59.6246 60.713ZM50.4326 59.7827C47.5632 58.8122 45.7516 56.9339 44.9116 54.0778L42.9928 54.6422C44.0195 58.1328 46.3145 60.5012 49.7918 61.6773L50.4326 59.7827ZM44.9129 54.0825C43.7888 50.1913 44.3839 45.5472 46.8913 40.0767L45.0731 39.2433C42.4471 44.9728 41.6889 50.1287 42.9915 54.6375L44.9129 54.0825ZM46.8953 40.0676C48.0127 37.5648 49.7965 34.8441 52.2765 31.9049L50.7479 30.6151C48.1878 33.6493 46.285 36.5286 45.069 39.2523L46.8953 40.0676ZM52.2782 31.9029C54.3871 29.3901 56.7155 27.6042 59.258 26.5083L58.4664 24.6717C55.5955 25.9091 53.024 27.9032 50.7462 30.6171L52.2782 31.9029ZM59.2594 26.5077C62.2522 25.2123 65.3739 24.6103 68.6348 24.6996L68.6896 22.7004C65.1371 22.603 61.7255 23.261 58.465 24.6723L59.2594 26.5077ZM68.6366 24.6997C70.3167 24.7428 71.6722 25.128 72.7494 25.8062C73.8222 26.4817 74.6814 27.4868 75.3118 28.8738L77.1326 28.0462C76.363 26.3532 75.2622 25.025 73.815 24.1138C72.3722 23.2053 70.6477 22.7506 68.6878 22.7003L68.6366 24.6997ZM75.303 28.8539C75.8973 30.2404 76.0618 32.3117 75.6522 35.1786L77.6321 35.4614C78.0626 32.4483 77.9471 29.9462 77.1413 28.0661L75.303 28.8539ZM75.6607 35.1285C74.9206 38.9215 73.975 41.437 72.9078 42.8326L74.4966 44.0475C75.856 42.2697 76.8704 39.3719 77.6237 35.5115L75.6607 35.1285ZM72.9167 42.8211C71.8221 44.2105 70.1126 45.5292 67.7183 46.749L68.6261 48.531C71.1785 47.2308 73.1556 45.7495 74.4877 44.0589L72.9167 42.8211ZM64.3154 35.6009C62.8214 35.2908 61.4291 35.5597 60.2188 36.4346C59.0456 37.2827 58.1188 38.6447 57.381 40.3908L59.2233 41.1692C59.8856 39.602 60.6271 38.6073 61.3905 38.0554C62.117 37.5303 62.9297 37.3559 63.909 37.5591L64.3154 35.6009ZM57.3984 40.3519C56.9479 41.3032 56.5984 42.3025 56.3494 43.3484L58.295 43.8116C58.5126 42.8975 58.8165 42.0302 59.2059 41.2081L57.3984 40.3519ZM57.2053 44.5732C59.2783 44.817 61.2558 43.6333 63.1037 41.5909L61.6207 40.2491C59.9219 42.1267 58.5394 42.7163 57.439 42.5868L57.2053 44.5732ZM63.1341 41.5557C63.8387 40.7002 64.3856 39.8223 64.7569 38.9207L62.9075 38.1592C62.6254 38.8444 62.1924 39.5531 61.5903 40.2843L63.1341 41.5557ZM64.7642 38.9024C65.1117 38.0087 65.3092 37.09 65.07 36.2927L63.1544 36.8673C63.1952 37.0033 63.206 37.3913 62.9002 38.1776L64.7642 38.9024ZM102.852 59.68L102.227 58.8991L102.217 58.9069L102.852 59.68ZM96.3417 63.04L96.0576 62.0812L96.0469 62.0844L96.0363 62.0878L96.3417 63.04ZM88.8517 64.3L88.8332 63.3002L88.8517 64.3ZM81.7817 63.39L81.4962 64.3484L81.7817 63.39ZM76.6017 60.31L77.345 59.641L77.3376 59.6328L77.3299 59.6246L76.6017 60.31ZM75.0617 55.55L74.12 55.2137L74.1104 55.2405L74.1024 55.2678L75.0617 55.55ZM76.3217 54.01L76.8458 54.8617L76.8613 54.8521L76.8764 54.842L76.3217 54.01ZM78.4217 53.73L78.2048 54.7062L78.271 54.7209L78.3387 54.7265L78.4217 53.73ZM79.6117 53.31L78.8117 52.71L78.8047 52.7193L78.798 52.7288L79.6117 53.31ZM80.3117 52.12L81.2255 52.5261L81.2332 52.5089L81.2402 52.4914L80.3117 52.12ZM80.9417 50.86L81.7897 51.39L81.8034 51.3682L81.8159 51.3456L80.9417 50.86ZM82.0617 50.23L82.0901 49.2304L82.0759 49.23H82.0617V50.23ZM94.8717 48.06L95.8533 48.2509L95.9602 47.7012L95.5474 47.3228L94.8717 48.06ZM92.7717 46.73L92.3459 47.6348L92.3557 47.6394L92.3656 47.6438L92.7717 46.73ZM90.3217 45.61L89.9079 46.5204L89.9156 46.5238L90.3217 45.61ZM86.1917 42.53L87.0397 42L86.8965 41.7709L86.6575 41.6451L86.1917 42.53ZM84.1617 39.17L85.1288 38.9155L85.1251 38.9016L85.1211 38.8878L84.1617 39.17ZM84.2317 34.41L85.1602 34.7814L85.2466 34.5653L85.2288 34.3333L84.2317 34.41ZM87.5917 28.39L88.2694 29.1254L88.2722 29.1228L87.5917 28.39ZM90.0417 26.43L89.4605 25.6163L90.0417 26.43ZM94.4517 24.4L94.7679 25.3487L94.4517 24.4ZM100.262 23L100.407 23.9895L100.416 23.988L100.426 23.9864L100.262 23ZM105.512 22.65L105.451 23.6482L105.453 23.6483L105.512 22.65ZM108.872 23.77L108.165 24.4771L108.177 24.4893L108.189 24.5011L108.872 23.77ZM110.482 26.22L109.547 26.576L109.555 26.5951L109.563 26.6139L110.482 26.22ZM110.902 29.09L111.886 29.265L111.889 29.2517L111.891 29.2383L110.902 29.09ZM105.722 33.43L105.865 34.4197L105.919 34.4119L105.971 34.3984L105.722 33.43ZM100.122 34.97H101.122V34.8232L101.08 34.6827L100.122 34.97ZM99.6317 35.32L99.2378 34.4009L97.5707 35.1153L99.0647 36.1437L99.6317 35.32ZM107.122 42.6L107.985 42.0946L107.984 42.093L107.122 42.6ZM107.962 53.52L107.014 53.2005L106.932 53.4434L106.977 53.6958L107.962 53.52ZM104.462 58.42L103.855 57.6252L103.852 57.6274L104.462 58.42ZM102.217 58.9069C100.512 60.3063 98.4646 61.368 96.0576 62.0812L96.6258 63.9988C99.2589 63.2186 101.551 62.0404 103.486 60.4531L102.217 58.9069ZM96.0363 62.0878C93.6529 62.8523 91.2528 63.2554 88.8332 63.3002L88.8702 65.2998C91.4906 65.2513 94.0839 64.8144 96.6471 63.9922L96.0363 62.0878ZM88.8332 63.3002C86.4057 63.3451 84.1525 63.0528 82.0672 62.4316L81.4962 64.3484C83.7976 65.0339 86.2577 65.3482 88.8702 65.2998L88.8332 63.3002ZM82.0672 62.4316C80.0122 61.8195 78.4579 60.8775 77.345 59.641L75.8584 60.979C77.2656 62.5425 79.1646 63.6539 81.4962 64.3484L82.0672 62.4316ZM77.3299 59.6246C75.9919 58.2029 75.6862 56.9706 76.0211 55.8322L74.1024 55.2678C73.5039 57.3027 74.2249 59.2437 75.8735 60.9954L77.3299 59.6246ZM76.0035 55.8863C76.1581 55.4534 76.4273 55.1192 76.8458 54.8617L75.7976 53.1583C75.0028 53.6475 74.432 54.3399 74.12 55.2137L76.0035 55.8863ZM76.8764 54.842C77.1506 54.6593 77.5527 54.5613 78.2048 54.7062L78.6386 52.7538C77.6108 52.5254 76.6128 52.6141 75.767 53.1779L76.8764 54.842ZM78.3387 54.7265C79.0938 54.7895 79.9102 54.6126 80.4255 53.8912L78.798 52.7288C78.798 52.7288 78.7983 52.7283 78.799 52.7274C78.7998 52.7266 78.8008 52.7254 78.8021 52.7241C78.8047 52.7214 78.8078 52.7187 78.8109 52.7164C78.8178 52.7113 78.8185 52.7127 78.8064 52.717C78.7781 52.727 78.6888 52.7488 78.5048 52.7335L78.3387 54.7265ZM80.4117 53.91C80.7361 53.4775 81.0079 53.0159 81.2255 52.5261L79.3979 51.7139C79.2422 52.0641 79.0473 52.3959 78.8117 52.71L80.4117 53.91ZM81.2402 52.4914C81.4078 52.0723 81.5919 51.7065 81.7897 51.39L80.0937 50.33C79.8249 50.7602 79.5889 51.2344 79.3832 51.7486L81.2402 52.4914ZM81.8159 51.3456C81.854 51.2771 81.8805 51.2627 81.887 51.2591C81.8969 51.2535 81.9427 51.23 82.0617 51.23V49.23C81.6674 49.23 81.2699 49.3115 80.9065 49.5159C80.5396 49.7223 80.2628 50.0229 80.0676 50.3744L81.8159 51.3456ZM82.0333 51.2296C86.1583 51.3468 89.3577 51.2268 91.5912 50.8485C92.7027 50.6602 93.6416 50.3975 94.3507 50.0268C95.053 49.6596 95.6887 49.0973 95.8533 48.2509L93.8901 47.8691C93.8889 47.8752 93.8832 47.908 93.8251 47.9717C93.7611 48.042 93.6398 48.1416 93.424 48.2544C92.9839 48.4846 92.2807 48.7032 91.2572 48.8765C89.2207 49.2215 86.1785 49.3465 82.0901 49.2304L82.0333 51.2296ZM95.5474 47.3228C94.893 46.7229 94.0966 46.2245 93.1779 45.8162L92.3656 47.6438C93.1268 47.9821 93.7304 48.3704 94.196 48.7972L95.5474 47.3228ZM93.1975 45.8252C92.3974 45.4486 91.5741 45.0723 90.7279 44.6962L89.9156 46.5238C90.7493 46.8944 91.5594 47.2647 92.3459 47.6348L93.1975 45.8252ZM90.7355 44.6996C88.7486 43.7965 87.5851 42.8726 87.0397 42L85.3437 43.06C86.1983 44.4274 87.7882 45.5569 89.9079 46.5204L90.7355 44.6996ZM86.6575 41.6451C86.1598 41.3831 85.5785 40.6244 85.1288 38.9155L83.1946 39.4245C83.6783 41.2623 84.4503 42.7435 85.726 43.4149L86.6575 41.6451ZM85.1211 38.8878C84.9151 38.1876 84.8117 37.466 84.8117 36.72H82.8117C82.8117 37.654 82.9416 38.5657 83.2024 39.4522L85.1211 38.8878ZM84.8117 36.72C84.8117 35.9927 84.9325 35.3505 85.1602 34.7814L83.3032 34.0386C82.9709 34.8695 82.8117 35.7673 82.8117 36.72H84.8117ZM85.2288 34.3333C85.1254 32.9891 85.9483 31.2644 88.2694 29.1254L86.914 27.6546C84.4751 29.9023 83.0581 32.1909 83.2347 34.4867L85.2288 34.3333ZM88.2722 29.1228C88.8855 28.5533 89.6665 27.9269 90.623 27.2437L89.4605 25.6163C88.4569 26.3331 87.6046 27.0134 86.9113 27.6572L88.2722 29.1228ZM90.623 27.2437C91.4841 26.6286 92.8452 25.9896 94.7679 25.3487L94.1355 23.4513C92.1382 24.1171 90.5593 24.8314 89.4605 25.6163L90.623 27.2437ZM94.7679 25.3487C96.6759 24.7127 98.5552 24.2604 100.407 23.9895L100.117 22.0105C98.1415 22.2996 96.1475 22.7806 94.1355 23.4513L94.7679 25.3487ZM100.426 23.9864C102.332 23.6688 104.004 23.5605 105.451 23.6482L105.572 21.6518C103.939 21.5529 102.112 21.6779 100.097 22.0136L100.426 23.9864ZM105.453 23.6483C106.957 23.7367 107.772 24.0846 108.165 24.4771L109.579 23.0629C108.665 22.1487 107.24 21.7499 105.57 21.6517L105.453 23.6483ZM108.189 24.5011C108.768 25.0406 109.223 25.7248 109.547 26.576L111.416 25.864C110.994 24.7552 110.376 23.806 109.554 23.0389L108.189 24.5011ZM109.563 26.6139C109.919 27.4459 110.022 28.2151 109.913 28.9417L111.891 29.2383C112.062 28.0983 111.884 26.9541 111.401 25.8261L109.563 26.6139ZM109.917 28.915C109.644 30.4524 108.385 31.7114 105.472 32.4616L105.971 34.3984C109.218 33.562 111.413 31.9276 111.886 29.265L109.917 28.915ZM105.579 32.4403C103.633 32.7215 102.148 32.9969 101.152 33.2708C100.665 33.4045 100.226 33.5559 99.8994 33.7416C99.7407 33.8316 99.5296 33.9728 99.3656 34.1897C99.1778 34.4381 99.0334 34.8225 99.1639 35.2573L101.08 34.6827C101.175 35.0009 101.058 35.2671 100.961 35.3959C100.887 35.4932 100.829 35.5134 100.887 35.4809C100.991 35.4216 101.235 35.3222 101.682 35.1992C102.552 34.9598 103.937 34.6985 105.865 34.4197L105.579 32.4403ZM99.1217 34.97C99.1217 34.6937 99.2421 34.507 99.3017 34.4304C99.3626 34.3521 99.4158 34.3153 99.418 34.3138C99.423 34.3102 99.3773 34.3411 99.2378 34.4009L100.026 36.2391C100.213 36.1589 100.412 36.0615 100.58 35.9412C100.664 35.8814 100.779 35.7891 100.88 35.6583C100.981 35.5292 101.122 35.2929 101.122 34.97H99.1217ZM99.0647 36.1437C102.6 38.5771 104.964 40.9048 106.26 43.107L107.984 42.093C106.479 39.5352 103.85 37.0095 100.199 34.4963L99.0647 36.1437ZM106.259 43.1054C108.007 46.0909 108.287 49.425 107.014 53.2005L108.909 53.8395C110.343 49.5884 110.063 45.6424 107.985 42.0946L106.259 43.1054ZM106.977 53.6958C107.027 53.9747 106.954 54.4352 106.448 55.1438C105.947 55.8454 105.101 56.6737 103.855 57.6252L105.069 59.2148C106.389 58.2063 107.41 57.238 108.075 56.3062C108.736 55.3814 109.13 54.372 108.946 53.3442L106.977 53.6958ZM103.852 57.6274C103.242 58.0969 102.7 58.5209 102.227 58.8991L103.476 60.4609C103.937 60.0924 104.468 59.6764 105.071 59.2126L103.852 57.6274ZM131.892 5.64L132.721 6.19837L132.819 6.05279L132.862 5.88253L131.892 5.64ZM131.962 5.36L131.255 4.65289L131.059 4.84875L130.992 5.11747L131.962 5.36ZM132.592 4.73L133.299 5.4371L133.437 5.29922L133.513 5.11964L132.592 4.73ZM134.272 2.56L133.997 1.59847L133.954 1.61069L133.913 1.62665L134.272 2.56ZM135.532 2.21L135.269 1.24523L135.269 1.24523L135.532 2.21ZM137.562 1.16L138.117 1.99205L138.338 1.84474L138.456 1.60721L137.562 1.16ZM139.592 0.319996L139.501 1.31589L139.524 1.31794L139.546 1.31896L139.592 0.319996ZM142.602 1.3L142.076 2.15026L142.099 2.16473L142.123 2.17789L142.602 1.3ZM145.052 3.68L144.191 4.18873L144.199 4.20294L144.208 4.21687L145.052 3.68ZM145.542 6.9L146.499 7.19118L146.502 7.18L145.542 6.9ZM144.702 9.35L143.779 8.96538L143.77 8.98662L143.762 9.00825L144.702 9.35ZM144.072 10.82L143.177 10.3728L143.159 10.41L143.143 10.4486L144.072 10.82ZM143.302 12.43L142.421 11.9559L142.414 11.9692L142.407 11.9828L143.302 12.43ZM142.182 14.74L143.084 15.1715L143.085 15.1699L142.182 14.74ZM139.872 19.57L138.97 19.1385L138.953 19.1742L138.939 19.211L139.872 19.57ZM139.242 20.62L138.795 19.7256L138.739 19.7534L138.687 19.788L139.242 20.62ZM138.822 21.11L137.964 20.5955L136.767 22.591L139.039 22.0862L138.822 21.11ZM140.712 20.76L140.57 19.7701L140.559 19.7717L140.547 19.7736L140.712 20.76ZM142.952 20.48L143.131 19.4961L142.987 19.47L142.841 19.4861L142.952 20.48ZM147.292 21.11L146.911 22.0347L146.935 22.0444L146.959 22.053L147.292 21.11ZM148.832 22.65L147.877 22.9483L148.832 22.65ZM148.902 24.96L149.872 25.2026L149.875 25.189L148.902 24.96ZM147.782 27.06L147.023 26.4092L147.782 27.06ZM145.612 28.11L145.559 27.1114L145.451 27.1171L145.346 27.146L145.612 28.11ZM136.932 29.93L136.878 28.9315L136.451 28.9545L136.173 29.2792L136.932 29.93ZM136.512 30.42L135.753 29.7692L135.512 30.0501V30.42H136.512ZM136.512 30.49L137.435 30.8746L137.512 30.69V30.49H136.512ZM134.972 34.76L134.021 34.4515L134.018 34.4596L134.016 34.4678L134.972 34.76ZM133.222 40.29L132.271 39.9804L132.269 39.9873L132.267 39.9943L133.222 40.29ZM131.332 46.45L132.287 46.7471L132.289 46.7412L131.332 46.45ZM129.302 52.54L128.36 52.2037L128.358 52.2107L128.355 52.2177L129.302 52.54ZM124.402 63.25L124.849 64.1444L124.865 64.1364L124.881 64.1279L124.402 63.25ZM123.212 63.6L123.101 62.6061L123.035 62.6135L122.969 62.6299L123.212 63.6ZM122.582 63.81L122.525 64.8084L122.972 64.8339L123.289 64.5171L122.582 63.81ZM118.522 62.83L118.059 63.7166L118.522 62.83ZM116.352 61.22L115.543 61.8082L116.352 61.22ZM116.072 59.47L117.033 59.7447L117.057 59.663L117.066 59.5785L116.072 59.47ZM121.392 32.8L122.356 33.0655L122.704 31.8H121.392V32.8ZM119.432 33.08L118.985 32.1856L118.973 32.1915L118.961 32.1976L119.432 33.08ZM116.912 33.71V34.71H116.936L116.959 34.7089L116.912 33.71ZM116.842 33.71L116.779 34.7081L116.811 34.71H116.842V33.71ZM114.812 32.66L114.079 33.3405L114.812 32.66ZM113.692 30.42L114.678 30.2556L113.692 30.42ZM114.112 27.83L115.016 28.2581L114.112 27.83ZM116.632 25.73L116.361 24.7673L116.307 24.7826L116.255 24.8039L116.632 25.73ZM119.922 24.68L120.293 25.6085L120.304 25.604L119.922 24.68ZM123.282 23.49L123.039 22.5198L123.027 22.5229L123.282 23.49ZM124.822 23.07L125.269 23.9644L125.325 23.9366L125.377 23.902L124.822 23.07ZM125.102 22.86L124.547 22.0279L124.465 22.0829L124.395 22.1529L125.102 22.86ZM126.152 22.72V23.72H126.966L127.131 22.9226L126.152 22.72ZM126.992 18.59L126.011 18.3939L126.992 18.59ZM128.042 14.32L129.002 14.5988L129.005 14.5876L128.042 14.32ZM132.862 5.88253L132.932 5.60253L130.992 5.11747L130.922 5.39747L132.862 5.88253ZM132.669 6.0671L133.299 5.4371L131.885 4.02289L131.255 4.65289L132.669 6.0671ZM133.513 5.11964C134.015 3.93389 134.438 3.56757 134.631 3.49334L133.913 1.62665C132.893 2.01909 132.196 3.09944 131.671 4.34036L133.513 5.11964ZM134.547 3.52152C134.868 3.42972 135.284 3.31422 135.795 3.17476L135.269 1.24523C134.753 1.38577 134.329 1.5036 133.997 1.59847L134.547 3.52152ZM135.795 3.17476C136.467 2.9914 137.252 2.56824 138.117 1.99205L137.007 0.327948C136.191 0.87176 135.623 1.14859 135.269 1.24523L135.795 3.17476ZM138.456 1.60721C138.512 1.49656 138.58 1.43219 138.697 1.38401C138.837 1.3259 139.087 1.27825 139.501 1.31589L139.682 -0.675898C139.07 -0.731591 138.468 -0.685908 137.932 -0.464019C137.372 -0.232193 136.939 0.1701 136.667 0.712784L138.456 1.60721ZM139.546 1.31896C140.383 1.35698 141.223 1.62226 142.076 2.15026L143.128 0.44973C142.021 -0.235595 140.854 -0.623654 139.637 -0.678973L139.546 1.31896ZM142.123 2.17789C142.988 2.64977 143.674 3.3141 144.191 4.18873L145.913 3.17127C145.216 1.99256 144.269 1.07023 143.081 0.422101L142.123 2.17789ZM144.208 4.21687C144.715 5.0126 144.824 5.78962 144.582 6.62L146.502 7.18C146.913 5.77038 146.696 4.40073 145.896 3.14312L144.208 4.21687ZM144.585 6.60884C144.262 7.67223 143.993 8.4515 143.779 8.96538L145.625 9.73461C145.878 9.1285 146.169 8.27444 146.499 7.19116L144.585 6.60884ZM143.762 9.00825C143.588 9.48726 143.393 9.94193 143.177 10.3728L144.966 11.2672C145.218 10.7647 145.443 10.2394 145.642 9.69174L143.762 9.00825ZM143.143 10.4486C142.975 10.87 142.736 11.3713 142.421 11.9559L144.182 12.9041C144.521 12.2754 144.796 11.7033 145 11.1914L143.143 10.4486ZM142.407 11.9828C142.123 12.5512 141.747 13.3278 141.279 14.3101L143.085 15.1699C143.55 14.1922 143.921 13.4288 144.196 12.8772L142.407 11.9828ZM141.28 14.3085L138.97 19.1385L140.774 20.0015L143.084 15.1715L141.28 14.3085ZM138.939 19.211C138.832 19.488 138.745 19.6677 138.682 19.773C138.651 19.8248 138.636 19.8405 138.641 19.8351C138.643 19.8333 138.691 19.7772 138.795 19.7256L139.689 21.5144C140.05 21.3339 140.272 21.0104 140.397 20.802C140.544 20.5573 140.678 20.2586 140.805 19.929L138.939 19.211ZM138.687 19.788C138.371 19.9988 138.139 20.3046 137.964 20.5955L139.679 21.6245C139.728 21.544 139.766 21.4929 139.791 21.4633C139.817 21.4328 139.82 21.4361 139.797 21.452L138.687 19.788ZM139.039 22.0862C139.449 21.995 139.78 21.929 140.036 21.8864L139.707 19.9136C139.403 19.9643 139.034 20.0384 138.605 20.1338L139.039 22.0862ZM140.036 21.8864C140.316 21.8397 140.596 21.7931 140.876 21.7464L140.547 19.7736C140.267 19.8203 139.987 19.8669 139.707 19.9136L140.036 21.8864ZM140.853 21.7499C141.494 21.6584 142.23 21.5664 143.062 21.4739L142.841 19.4861C141.994 19.5803 141.236 19.6749 140.57 19.7701L140.853 21.7499ZM142.773 21.4639C143.324 21.5641 143.83 21.62 144.282 21.62V19.62C143.987 19.62 143.606 19.5826 143.131 19.4961L142.773 21.4639ZM144.282 21.62H145.262V19.62H144.282V21.62ZM145.262 21.62C145.641 21.62 146.181 21.734 146.911 22.0347L147.673 20.1853C146.816 19.8327 146.003 19.62 145.262 19.62V21.62ZM146.959 22.053C147.481 22.2373 147.746 22.5279 147.877 22.9483L149.786 22.3517C149.451 21.2787 148.689 20.5427 147.625 20.167L146.959 22.053ZM147.877 22.9483C148.055 23.5167 148.076 24.1043 147.928 24.731L149.875 25.189C150.101 24.229 150.075 23.2766 149.786 22.3517L147.877 22.9483ZM147.932 24.7175C147.787 25.2965 147.494 25.8597 147.023 26.4092L148.541 27.7108C149.19 26.9536 149.643 26.1168 149.872 25.2025L147.932 24.7175ZM147.023 26.4092C146.647 26.8475 146.183 27.0786 145.559 27.1114L145.664 29.1086C146.815 29.0481 147.797 28.5792 148.541 27.7108L147.023 26.4092ZM145.346 27.146C141.285 28.2663 138.485 28.8446 136.878 28.9315L136.986 30.9285C138.832 30.8288 141.819 30.1936 145.878 29.074L145.346 27.146ZM136.173 29.2792L135.753 29.7692L137.271 31.0708L137.691 30.5808L136.173 29.2792ZM135.512 30.42V30.49H137.512V30.42H135.512ZM135.589 30.1054C135.108 31.2593 134.585 32.7103 134.021 34.4515L135.923 35.0685C136.478 33.3563 136.982 31.9607 137.435 30.8746L135.589 30.1054ZM134.016 34.4678C133.504 36.141 132.923 37.9784 132.271 39.9804L134.173 40.5996C134.828 38.5882 135.413 36.739 135.928 35.0522L134.016 34.4678ZM132.267 39.9943C131.659 41.956 131.029 44.0108 130.375 46.1588L132.289 46.7412C132.941 44.5959 133.571 42.544 134.177 40.5857L132.267 39.9943ZM130.377 46.1529C129.728 48.2405 129.055 50.2574 128.36 52.2037L130.244 52.8763C130.949 50.9026 131.63 48.8595 132.287 46.7471L130.377 46.1529ZM128.355 52.2177C127.239 55.4961 126.283 57.9968 125.488 59.7365C125.089 60.6079 124.741 61.2644 124.445 61.7241C124.297 61.9535 124.172 62.1183 124.071 62.2309C123.965 62.3489 123.915 62.3767 123.923 62.3721L124.881 64.1279C125.374 63.8589 125.782 63.3413 126.126 62.8071C126.495 62.2343 126.888 61.4821 127.306 60.5685C128.144 58.7382 129.125 56.1639 130.249 52.8623L128.355 52.2177ZM123.955 62.3556C123.688 62.4888 123.406 62.5723 123.101 62.6061L123.322 64.5939C123.858 64.5344 124.369 64.3845 124.849 64.1444L123.955 62.3556ZM122.969 62.6299C122.773 62.6789 122.599 62.7269 122.458 62.7738C122.389 62.7969 122.31 62.8255 122.234 62.8603C122.188 62.8811 122.023 62.955 121.875 63.1029L123.289 64.5171C123.249 64.557 123.213 64.5861 123.187 64.6052C123.16 64.6247 123.138 64.6392 123.122 64.6489C123.09 64.6676 123.068 64.678 123.061 64.681C123.049 64.6866 123.055 64.6831 123.091 64.6712C123.16 64.6481 123.277 64.6144 123.454 64.5701L122.969 62.6299ZM122.639 62.8116C121.1 62.7237 119.896 62.4191 118.984 61.9434L118.059 63.7166C119.294 64.3609 120.797 64.7096 122.525 64.8084L122.639 62.8116ZM118.984 61.9434C117.945 61.4013 117.393 60.952 117.161 60.6318L115.543 61.8082C116.057 62.5147 116.952 63.1387 118.059 63.7166L118.984 61.9434ZM117.161 60.6318C116.982 60.3869 116.924 60.1263 117.033 59.7447L115.11 59.1953C114.846 60.1204 114.975 61.0265 115.543 61.8082L117.161 60.6318ZM117.066 59.5785C117.946 51.5219 119.707 42.6851 122.356 33.0655L120.428 32.5345C117.757 42.2349 115.971 51.1781 115.078 59.3615L117.066 59.5785ZM121.392 31.8C120.45 31.8 119.586 31.8849 118.985 32.1856L119.879 33.9744C120.024 33.9017 120.467 33.8 121.392 33.8V31.8ZM118.961 32.1976C118.419 32.4868 117.731 32.6699 116.864 32.7111L116.959 34.7089C118.053 34.6568 119.045 34.4199 119.902 33.9624L118.961 32.1976ZM116.912 32.71H116.842V34.71H116.912V32.71ZM116.904 32.7119C116.461 32.6843 116.012 32.4833 115.545 31.9795L114.079 33.3405C114.825 34.1433 115.729 34.6424 116.779 34.7081L116.904 32.7119ZM115.545 31.9795C115.065 31.4626 114.785 30.8931 114.678 30.2556L112.705 30.5844C112.879 31.6269 113.346 32.5507 114.079 33.3405L115.545 31.9795ZM114.678 30.2556C114.577 29.6463 114.669 28.9893 115.016 28.2581L113.208 27.4019C112.714 28.4441 112.527 29.5136 112.705 30.5844L114.678 30.2556ZM115.016 28.2581C115.293 27.6721 115.891 27.1118 117.009 26.6561L116.255 24.8039C114.853 25.3749 113.771 26.2146 113.208 27.4019L115.016 28.2581ZM116.903 26.6926C118.402 26.2709 119.541 25.9092 120.293 25.6085L119.55 23.7515C118.902 24.0108 117.848 24.3491 116.361 24.7673L116.903 26.6926ZM120.304 25.604C121.637 25.0524 122.711 24.6743 123.536 24.4571L123.027 22.5229C122.079 22.7724 120.913 23.1876 119.54 23.756L120.304 25.604ZM123.524 24.4601C123.993 24.3429 124.363 24.2475 124.63 24.1748C124.763 24.1385 124.877 24.1062 124.967 24.0783C125.029 24.0593 125.159 24.0194 125.269 23.9644L124.375 22.1756C124.438 22.1439 124.469 22.139 124.379 22.1667C124.318 22.1855 124.228 22.2115 124.104 22.2452C123.857 22.3124 123.504 22.4038 123.039 22.5199L123.524 24.4601ZM125.377 23.902C125.513 23.8113 125.684 23.6923 125.809 23.5671L124.395 22.1529C124.411 22.1369 124.42 22.1292 124.418 22.1311C124.417 22.1323 124.41 22.1376 124.397 22.1475C124.37 22.1677 124.328 22.1975 124.267 22.238L125.377 23.902ZM125.657 23.6921C125.612 23.7221 125.575 23.7392 125.555 23.7478C125.534 23.7566 125.522 23.7601 125.521 23.7603C125.52 23.7606 125.526 23.7588 125.54 23.756C125.555 23.7532 125.575 23.7498 125.602 23.7462C125.715 23.7311 125.894 23.72 126.152 23.72V21.72C125.85 21.72 125.574 21.7322 125.337 21.7638C125.142 21.7898 124.821 21.8455 124.547 22.0279L125.657 23.6921ZM127.131 22.9226C127.412 21.567 127.692 20.1882 127.972 18.7861L126.011 18.3939C125.732 19.7918 125.452 21.1663 125.173 22.5174L127.131 22.9226ZM127.972 18.7861C128.247 17.4154 128.59 16.0197 129.002 14.5988L127.082 14.0412C126.654 15.5136 126.297 16.9646 126.011 18.3939L127.972 18.7861ZM129.005 14.5876C129.915 11.3118 131.158 8.52072 132.721 6.19837L131.062 5.08162C129.359 7.6126 128.035 10.6082 127.078 14.0524L129.005 14.5876ZM153.21 28.11L153.773 28.9366L153.782 28.9303L153.791 28.9237L153.21 28.11ZM156.85 27.62L156.6 28.5883L156.643 28.5992L156.686 28.6064L156.85 27.62ZM157.69 27.69V28.69H158.314L158.589 28.1292L157.69 27.69ZM163.01 24.4L163.047 25.3993L163.064 25.3987L163.081 25.3975L163.01 24.4ZM165.74 24.05L165.898 25.0374L165.74 24.05ZM169.94 24.19L169.771 25.1756L169.776 25.1764L169.94 24.19ZM174.35 25.66L173.864 26.5342L173.873 26.539L174.35 25.66ZM179.32 32.1L178.34 32.2961L178.346 32.3299L178.355 32.3631L179.32 32.1ZM178.83 45.54L177.872 45.2543L177.869 45.2642L178.83 45.54ZM170.99 58.42L170.332 57.6668L170.326 57.6726L170.99 58.42ZM165.67 61.22L165.474 60.2394L165.462 60.2418L165.451 60.2444L165.67 61.22ZM160.63 61.92L160.599 60.9205L160.63 61.92ZM156.5 61.92L156.537 60.9207L156.519 60.92H156.5V61.92ZM152.93 61.57L152.731 62.5499L152.734 62.5506L152.93 61.57ZM146.7 58L147.453 57.3415L147.446 57.3339L147.439 57.3265L146.7 58ZM144.25 48.2L145.248 48.263L145.249 48.2553L145.249 48.2476L144.25 48.2ZM147.19 36.37L146.279 35.957L146.277 35.9619L147.19 36.37ZM165.53 42.18L166.522 42.0537L166.37 40.8612L165.225 41.2276L165.53 42.18ZM162.24 42.67L162.286 41.671L161.845 41.651L161.533 41.9629L162.24 42.67ZM160.84 44.35L160.018 43.7808L160.013 43.788L160.008 43.7953L160.84 44.35ZM159.3 45.96L159.881 46.7737L159.9 46.7604L159.918 46.7463L159.3 45.96ZM158.32 46.52H159.32V43.3782L157.504 45.942L158.32 46.52ZM156.36 50.02L157.275 50.4227L157.278 50.4162L157.281 50.4096L156.36 50.02ZM156.36 53.59L155.439 53.9796L155.67 54.526L156.261 54.585L156.36 53.59ZM160.49 53.45L160.791 54.4036L160.49 53.45ZM162.94 51.84L162.233 51.1329L162.222 51.1436L162.212 51.1546L162.94 51.84ZM164.76 49.04L163.838 48.6539L163.833 48.6647L163.829 48.6756L164.76 49.04ZM153.791 28.9237C154.474 28.436 155.365 28.2694 156.6 28.5883L157.1 26.6517C155.442 26.2239 153.906 26.384 152.629 27.2963L153.791 28.9237ZM156.686 28.6064C157.019 28.662 157.354 28.69 157.69 28.69V26.69C157.466 26.69 157.241 26.6713 157.015 26.6336L156.686 28.6064ZM158.589 28.1292C159.029 27.2276 159.609 26.5804 160.316 26.143C161.027 25.7031 161.924 25.4409 163.047 25.3993L162.973 23.4007C161.576 23.4524 160.326 23.7852 159.264 24.442C158.198 25.1012 157.378 26.0524 156.792 27.2508L158.589 28.1292ZM163.081 25.3975C163.778 25.3477 164.722 25.2257 165.898 25.0374L165.582 23.0626C164.425 23.2476 163.549 23.359 162.939 23.4025L163.081 25.3975ZM165.898 25.0374C166.923 24.8735 168.206 24.9073 169.771 25.1756L170.109 23.2044C168.408 22.9127 166.891 22.8531 165.582 23.0626L165.898 25.0374ZM169.776 25.1764C171.363 25.4409 172.721 25.8987 173.865 26.5342L174.836 24.7858C173.46 24.0213 171.877 23.4991 170.105 23.2036L169.776 25.1764ZM173.873 26.539C176.394 27.9064 177.844 29.8178 178.34 32.2961L180.301 31.9039C179.676 28.7822 177.813 26.4003 174.827 24.781L173.873 26.539ZM178.355 32.3631C179.418 36.2582 179.275 40.5455 177.872 45.2543L179.788 45.8257C181.278 40.8278 181.463 36.1551 180.285 31.8369L178.355 32.3631ZM177.869 45.2642C176.374 50.4726 173.854 54.5906 170.332 57.6668L171.648 59.1732C175.499 55.8094 178.206 51.3408 179.791 45.8158L177.869 45.2642ZM170.326 57.6726C168.754 59.0695 167.138 59.9067 165.474 60.2394L165.866 62.2006C167.936 61.7866 169.866 60.7572 171.655 59.1674L170.326 57.6726ZM165.451 60.2444C163.63 60.6541 162.014 60.8763 160.599 60.9205L160.661 62.9195C162.233 62.8704 163.977 62.6259 165.89 62.1956L165.451 60.2444ZM160.599 60.9205C159.124 60.9666 157.771 60.9664 156.537 60.9207L156.463 62.9193C157.75 62.967 159.149 62.9668 160.661 62.9195L160.599 60.9205ZM156.5 60.92C155.351 60.92 154.227 60.8096 153.126 60.5894L152.734 62.5506C153.967 62.7971 155.222 62.92 156.5 62.92V60.92ZM153.13 60.5901C150.816 60.1188 148.936 59.037 147.453 57.3415L145.948 58.6585C147.731 60.6963 150.005 61.9946 152.731 62.5499L153.13 60.5901ZM147.439 57.3265C145.789 55.5153 144.976 52.5748 145.248 48.263L143.252 48.137C142.964 52.6919 143.785 56.2847 145.961 58.6735L147.439 57.3265ZM145.249 48.2476C145.429 44.4647 146.375 40.6432 148.103 36.7781L146.277 35.9619C144.458 40.0301 143.444 44.0953 143.251 48.1524L145.249 48.2476ZM148.101 36.783C149.89 32.8383 151.801 30.2791 153.773 28.9366L152.647 27.2834C150.233 28.9275 148.131 31.875 146.279 35.957L148.101 36.783ZM165.225 41.2276C164.151 41.5715 163.173 41.7114 162.286 41.671L162.195 43.669C163.36 43.7219 164.576 43.5352 165.835 43.1324L165.225 41.2276ZM161.533 41.9629C160.977 42.5193 160.472 43.1256 160.018 43.7808L161.662 44.9192C162.049 44.3611 162.477 43.8473 162.947 43.3771L161.533 41.9629ZM160.008 43.7953C159.705 44.2494 159.271 44.711 158.682 45.1737L159.918 46.7463C160.636 46.1823 161.228 45.5706 161.672 44.9047L160.008 43.7953ZM158.719 45.1463C158.396 45.3768 158.186 45.5151 158.069 45.5818C157.994 45.6247 158.022 45.6001 158.107 45.576C158.118 45.5726 158.335 45.5019 158.61 45.5804C158.781 45.6293 158.99 45.7419 159.143 45.9608C159.29 46.1704 159.32 46.3839 159.32 46.52H157.32C157.32 46.6678 157.353 46.8907 157.505 47.1077C157.663 47.3339 157.879 47.4515 158.061 47.5034C158.356 47.5877 158.604 47.514 158.656 47.499C158.822 47.4516 158.973 47.3686 159.061 47.3182C159.271 47.1983 159.551 47.0099 159.881 46.7737L158.719 45.1463ZM157.504 45.942C156.671 47.1184 155.982 48.3479 155.439 49.6304L157.281 50.4096C157.765 49.2654 158.383 48.1616 159.136 47.098L157.504 45.942ZM155.445 49.6173C154.816 51.0454 154.823 52.5223 155.439 53.9796L157.281 53.2004C156.871 52.231 156.877 51.3279 157.275 50.4227L155.445 49.6173ZM156.261 54.585C158.153 54.7743 159.701 54.748 160.791 54.4036L160.189 52.4964C159.506 52.712 158.301 52.7791 156.46 52.595L156.261 54.585ZM160.791 54.4036C161.867 54.0639 162.825 53.4216 163.668 52.5254L162.212 51.1546C161.562 51.845 160.887 52.2761 160.189 52.4964L160.791 54.4036ZM163.647 52.5471C164.541 51.6535 165.223 50.6026 165.691 49.4044L163.829 48.6756C163.458 49.6241 162.926 50.4398 162.233 51.1329L163.647 52.5471ZM165.683 49.4261C166.602 47.2295 166.867 44.7613 166.522 42.0537L164.538 42.3063C164.847 44.732 164.598 46.8371 163.838 48.6539L165.683 49.4261Z" fill="black" mask="url(#path-1-outside-1_309_55)"/>
</svg>
