<svg width="24px" height="24px" version="1.1" id="Uploaded to svgrepo.com" xmlns="http://www.w3.org/2000/svg"
  xmlns:xlink="http://www.w3.org/1999/xlink" viewBox="0 0 32 32" xml:space="preserve" fill="#000000">
  <g id="SVGRepo_bgCarrier" stroke-width="0"></g>
  <g id="SVGRepo_tracerCarrier" stroke-linecap="round" stroke-linejoin="round"></g>
  <g id="SVGRepo_iconCarrier">
    <style type="text/css">
      .puchipuchi_een {
        fill: #000000;
      }
    </style>
    <path class="puchipuchi_een"
      d="M30.291,2.87l-9.581,25.26c-0.39,1.029-1.346,1.234-2.123,0.456c0,0-6.036-6.036-6.586-6.586 s-0.359-1.631,0.425-2.403l13.316-13.11c0.784-0.772,0.711-0.856-0.163-0.187L10.588,17.784c-0.873,0.669-2.224,0.58-3.002-0.198 l-4.172-4.172c-0.778-0.778-0.573-1.733,0.456-2.124l25.26-9.581C30.159,1.319,30.681,1.841,30.291,2.87z M8.707,20.121 C8.318,19.732,8,19.864,8,20.414V25c0,0.55,0.386,0.768,0.857,0.485l2.401-1.441c0.472-0.283,0.539-0.833,0.15-1.222L8.707,20.121z">
    </path>
  </g>
</svg>