<svg width="17" height="21" viewBox="0 0 17 21" fill="none" xmlns="http://www.w3.org/2000/svg">
  <path d="M0 4.57104L2.49248 9.11667V11.8894L0.00291578 16.4261L0 4.57104Z" fill="#5B57A2" />
  <path d="M9.57007 7.46241L11.9056 6.00186L16.6854 5.99731L9.57007 10.4448V7.46241Z" fill="#D90751" />
  <path d="M9.55688 4.54422L9.57009 10.5625L7.07178 8.99623V0L9.55688 4.54422Z" fill="#FAB718" />
  <path d="M16.6855 5.99743L11.9055 6.00198L9.55688 4.54422L7.07178 0L16.6855 5.99743Z" fill="#ED6F26" />
  <path d="M9.57009 16.4512V13.5314L7.07178 11.9949L7.07315 21L9.57009 16.4512Z" fill="#63B22F" />
  <path d="M11.8998 15.004L2.49231 9.11667L0 4.57104L16.6754 14.9981L11.8998 15.004Z" fill="#1487C9" />
  <path d="M7.07324 21L9.56984 16.4512L11.8995 15.004L16.6751 14.998L7.07324 21Z" fill="#017F36" />
  <path d="M0.00292969 16.426L7.09223 11.995L4.70883 10.5029L2.49249 11.8893L0.00292969 16.426Z" fill="#984995" />
</svg>